<mxfile host="app.diagrams.net" modified="2023-07-22T00:50:57.281Z" agent="Mozilla/5.0 (Windows NT 10.0; Win64; x64) AppleWebKit/537.36 (KHTML, like Gecko) Chrome/109.0.0.0 Safari/537.36" etag="MZRXUgm1vkmh0ZsIhlbx" version="21.6.5" type="github">
  <diagram name="第 1 页" id="sGKwSzPNXgOKBmv7JZm1">
    <mxGraphModel dx="1687" dy="2113" grid="1" gridSize="10" guides="1" tooltips="1" connect="1" arrows="1" fold="1" page="1" pageScale="1" pageWidth="827" pageHeight="1169" math="0" shadow="0">
      <root>
        <mxCell id="0" />
        <mxCell id="1" parent="0" />
        <mxCell id="vB8b37IcZnMBLv7CL9C9-13" value="" style="rounded=1;whiteSpace=wrap;html=1;" vertex="1" parent="1">
          <mxGeometry x="90" y="180" width="600" height="290" as="geometry" />
        </mxCell>
        <mxCell id="vB8b37IcZnMBLv7CL9C9-4" style="edgeStyle=orthogonalEdgeStyle;rounded=0;orthogonalLoop=1;jettySize=auto;html=1;exitX=1;exitY=0.5;exitDx=0;exitDy=0;entryX=0;entryY=0.5;entryDx=0;entryDy=0;" edge="1" parent="1" source="vB8b37IcZnMBLv7CL9C9-1" target="vB8b37IcZnMBLv7CL9C9-2">
          <mxGeometry relative="1" as="geometry" />
        </mxCell>
        <mxCell id="vB8b37IcZnMBLv7CL9C9-7" style="rounded=0;orthogonalLoop=1;jettySize=auto;html=1;exitX=0.5;exitY=1;exitDx=0;exitDy=0;" edge="1" parent="1" source="vB8b37IcZnMBLv7CL9C9-1" target="vB8b37IcZnMBLv7CL9C9-3">
          <mxGeometry relative="1" as="geometry" />
        </mxCell>
        <mxCell id="vB8b37IcZnMBLv7CL9C9-18" style="edgeStyle=orthogonalEdgeStyle;rounded=0;orthogonalLoop=1;jettySize=auto;html=1;exitX=0.5;exitY=0;exitDx=0;exitDy=0;entryX=0.5;entryY=1;entryDx=0;entryDy=0;" edge="1" parent="1" source="vB8b37IcZnMBLv7CL9C9-1" target="vB8b37IcZnMBLv7CL9C9-16">
          <mxGeometry relative="1" as="geometry" />
        </mxCell>
        <mxCell id="vB8b37IcZnMBLv7CL9C9-1" value="认知 - 情绪控制" style="rounded=1;whiteSpace=wrap;html=1;" vertex="1" parent="1">
          <mxGeometry x="190" y="200" width="120" height="60" as="geometry" />
        </mxCell>
        <mxCell id="vB8b37IcZnMBLv7CL9C9-6" style="rounded=0;orthogonalLoop=1;jettySize=auto;html=1;exitX=0.5;exitY=1;exitDx=0;exitDy=0;" edge="1" parent="1" source="vB8b37IcZnMBLv7CL9C9-2" target="vB8b37IcZnMBLv7CL9C9-3">
          <mxGeometry relative="1" as="geometry" />
        </mxCell>
        <mxCell id="vB8b37IcZnMBLv7CL9C9-17" style="edgeStyle=orthogonalEdgeStyle;rounded=0;orthogonalLoop=1;jettySize=auto;html=1;exitX=0.5;exitY=0;exitDx=0;exitDy=0;" edge="1" parent="1" source="vB8b37IcZnMBLv7CL9C9-2" target="vB8b37IcZnMBLv7CL9C9-15">
          <mxGeometry relative="1" as="geometry" />
        </mxCell>
        <mxCell id="vB8b37IcZnMBLv7CL9C9-2" value="身体" style="rounded=1;whiteSpace=wrap;html=1;" vertex="1" parent="1">
          <mxGeometry x="460" y="200" width="120" height="60" as="geometry" />
        </mxCell>
        <mxCell id="vB8b37IcZnMBLv7CL9C9-8" style="rounded=0;orthogonalLoop=1;jettySize=auto;html=1;exitX=1;exitY=0;exitDx=0;exitDy=0;entryX=0.5;entryY=1;entryDx=0;entryDy=0;" edge="1" parent="1" source="vB8b37IcZnMBLv7CL9C9-3" target="vB8b37IcZnMBLv7CL9C9-2">
          <mxGeometry relative="1" as="geometry" />
        </mxCell>
        <mxCell id="vB8b37IcZnMBLv7CL9C9-9" style="rounded=0;orthogonalLoop=1;jettySize=auto;html=1;exitX=0;exitY=0;exitDx=0;exitDy=0;entryX=0.5;entryY=1;entryDx=0;entryDy=0;" edge="1" parent="1" source="vB8b37IcZnMBLv7CL9C9-3" target="vB8b37IcZnMBLv7CL9C9-1">
          <mxGeometry relative="1" as="geometry" />
        </mxCell>
        <mxCell id="vB8b37IcZnMBLv7CL9C9-3" value="血压" style="ellipse;whiteSpace=wrap;html=1;aspect=fixed;" vertex="1" parent="1">
          <mxGeometry x="350" y="380" width="80" height="80" as="geometry" />
        </mxCell>
        <mxCell id="vB8b37IcZnMBLv7CL9C9-5" value="主体&amp;nbsp; -&amp;gt;&amp;nbsp; 受体" style="text;html=1;strokeColor=none;fillColor=none;align=center;verticalAlign=middle;whiteSpace=wrap;rounded=0;" vertex="1" parent="1">
          <mxGeometry x="340" y="210" width="80" height="20" as="geometry" />
        </mxCell>
        <mxCell id="vB8b37IcZnMBLv7CL9C9-10" value="恶心循环" style="text;html=1;strokeColor=none;fillColor=none;align=center;verticalAlign=middle;whiteSpace=wrap;rounded=0;" vertex="1" parent="1">
          <mxGeometry x="414" y="300" width="60" height="30" as="geometry" />
        </mxCell>
        <mxCell id="vB8b37IcZnMBLv7CL9C9-11" value="恶心循环" style="text;html=1;strokeColor=none;fillColor=none;align=center;verticalAlign=middle;whiteSpace=wrap;rounded=0;" vertex="1" parent="1">
          <mxGeometry x="300" y="300" width="60" height="30" as="geometry" />
        </mxCell>
        <mxCell id="vB8b37IcZnMBLv7CL9C9-14" value="" style="rounded=1;whiteSpace=wrap;html=1;" vertex="1" parent="1">
          <mxGeometry x="90" y="-180" width="600" height="320" as="geometry" />
        </mxCell>
        <mxCell id="vB8b37IcZnMBLv7CL9C9-21" style="edgeStyle=orthogonalEdgeStyle;rounded=0;orthogonalLoop=1;jettySize=auto;html=1;exitX=0.5;exitY=0;exitDx=0;exitDy=0;entryX=1;entryY=0.5;entryDx=0;entryDy=0;" edge="1" parent="1" source="vB8b37IcZnMBLv7CL9C9-15" target="vB8b37IcZnMBLv7CL9C9-19">
          <mxGeometry relative="1" as="geometry" />
        </mxCell>
        <mxCell id="vB8b37IcZnMBLv7CL9C9-15" value="自我调控&amp;nbsp; -&amp;nbsp; 抵抗" style="rounded=1;whiteSpace=wrap;html=1;" vertex="1" parent="1">
          <mxGeometry x="460" y="40" width="120" height="60" as="geometry" />
        </mxCell>
        <mxCell id="vB8b37IcZnMBLv7CL9C9-20" style="edgeStyle=orthogonalEdgeStyle;rounded=0;orthogonalLoop=1;jettySize=auto;html=1;exitX=0.5;exitY=0;exitDx=0;exitDy=0;entryX=0;entryY=0.5;entryDx=0;entryDy=0;" edge="1" parent="1" source="vB8b37IcZnMBLv7CL9C9-16" target="vB8b37IcZnMBLv7CL9C9-19">
          <mxGeometry relative="1" as="geometry" />
        </mxCell>
        <mxCell id="vB8b37IcZnMBLv7CL9C9-16" value="吾心" style="rounded=1;whiteSpace=wrap;html=1;" vertex="1" parent="1">
          <mxGeometry x="190" y="40" width="120" height="60" as="geometry" />
        </mxCell>
        <mxCell id="vB8b37IcZnMBLv7CL9C9-25" style="edgeStyle=orthogonalEdgeStyle;rounded=0;orthogonalLoop=1;jettySize=auto;html=1;exitX=0.5;exitY=0;exitDx=0;exitDy=0;entryX=0.5;entryY=1;entryDx=0;entryDy=0;" edge="1" parent="1" source="vB8b37IcZnMBLv7CL9C9-19" target="vB8b37IcZnMBLv7CL9C9-24">
          <mxGeometry relative="1" as="geometry" />
        </mxCell>
        <mxCell id="vB8b37IcZnMBLv7CL9C9-19" value="循序减药" style="rounded=1;whiteSpace=wrap;html=1;" vertex="1" parent="1">
          <mxGeometry x="330" y="-70" width="120" height="60" as="geometry" />
        </mxCell>
        <mxCell id="vB8b37IcZnMBLv7CL9C9-23" style="edgeStyle=orthogonalEdgeStyle;rounded=0;orthogonalLoop=1;jettySize=auto;html=1;exitX=1;exitY=0.25;exitDx=0;exitDy=0;entryX=0.917;entryY=0.25;entryDx=0;entryDy=0;entryPerimeter=0;" edge="1" source="vB8b37IcZnMBLv7CL9C9-24" target="vB8b37IcZnMBLv7CL9C9-24" parent="1">
          <mxGeometry relative="1" as="geometry" />
        </mxCell>
        <mxCell id="vB8b37IcZnMBLv7CL9C9-24" value="监控" style="rounded=1;whiteSpace=wrap;html=1;" vertex="1" parent="1">
          <mxGeometry x="330" y="-170" width="120" height="60" as="geometry" />
        </mxCell>
      </root>
    </mxGraphModel>
  </diagram>
</mxfile>
